Coordinates
version=1
nRows=49
nColumns=12
inDegrees=yes

Units are S.I. units (second, meters, Newtons, ...)
Angles are in degrees

endheader
time	SC_y	SC_z	SC_x	AC_y	AC_z	AC_x	GH_y	GH_z	GH_yy	EL_x	PS_y
       0.0              -27.81          39.24          51.21          34.88         -4.073          16.53          36.61         -7.867          86.28          132.8          27.43
   0.03643              -27.82          39.23          51.21          34.89         -4.073          16.52          36.62         -7.863          86.26          132.8          27.45
   0.07287              -27.82          39.23          51.21          34.89         -4.073          16.52          36.63         -7.858          86.24          132.8          27.46
    0.1093              -27.83          39.23          51.22          34.89         -4.074          16.52          36.64         -7.854          86.21          132.7          27.48
    0.1457              -27.83          39.22          51.22          34.89         -4.074          16.52          36.65         -7.849          86.19          132.7           27.5
    0.1822              -27.84          39.22          51.23           34.9         -4.074          16.52          36.66         -7.844          86.16          132.7          27.52
    0.2186              -27.85          39.21          51.23           34.9         -4.075          16.52          36.68         -7.839          86.13          132.7          27.55
     0.255              -27.85          39.21          51.23           34.9         -4.075          16.52          36.69         -7.833           86.1          132.7          27.57
    0.2915              -27.86           39.2          51.24          34.91         -4.076          16.52           36.7         -7.827          86.07          132.6          27.59
    0.3279              -27.87           39.2          51.24          34.91         -4.076          16.52          36.72         -7.821          86.04          132.6          27.62
    0.3643              -27.88          39.19          51.25          34.92         -4.077          16.51          36.73         -7.814           86.0          132.6          27.65
    0.4008              -27.89          39.19          51.26          34.92         -4.077          16.51          36.75         -7.806          85.96          132.6          27.68
    0.4372               -27.9          39.18          51.26          34.93         -4.078          16.51          36.77         -7.798          85.92          132.5          27.72
    0.4736              -27.91          39.17          51.27          34.93         -4.078          16.51          36.79         -7.789          85.87          132.5          27.75
    0.5101              -27.92          39.17          51.28          34.94         -4.079          16.51          36.81         -7.779          85.82          132.5          27.79
    0.5465              -27.93          39.16          51.29          34.95          -4.08           16.5          36.83         -7.769          85.76          132.4          27.83
     0.583              -27.94          39.15          51.29          34.95          -4.08           16.5          36.86         -7.758           85.7          132.4          27.88
    0.6194              -27.96          39.14           51.3          34.96         -4.081           16.5          36.89         -7.745          85.64          132.4          27.93
    0.6558              -27.97          39.13          51.32          34.97         -4.082           16.5          36.92         -7.732          85.57          132.3          27.99
    0.6923              -27.99          39.12          51.33          34.98         -4.083          16.49          36.95         -7.717          85.49          132.3          28.05
    0.7287              -28.01           39.1          51.34          34.99         -4.084          16.49          36.99         -7.701           85.4          132.2          28.11
    0.7651              -28.03          39.09          51.35           35.0         -4.085          16.48          37.03         -7.683          85.31          132.1          28.19
    0.8016              -28.06          39.07          51.37          35.01         -4.087          16.48          37.07         -7.664           85.2          132.1          28.27
     0.838              -28.08          39.06          51.39          35.03         -4.088          16.48          37.12         -7.642          85.09          132.0          28.36
    0.8744              -28.11          39.04          51.41          35.04          -4.09          16.47          37.18         -7.618          84.96          131.9          28.46
    0.9109              -28.14          39.02          51.43          35.06         -4.092          16.46          37.24         -7.591          84.81          131.8          28.57
    0.9473              -28.18          38.99          51.45          35.08         -4.094          16.46          37.31         -7.561          84.65          131.7          28.69
    0.9837              -28.22          38.96          51.48           35.1         -4.096          16.45          37.38         -7.527          84.47          131.6          28.83
      1.02              -28.26          38.93          51.51          35.13         -4.099          16.44          37.47         -7.488          84.27          131.4          28.99
     1.057              -28.32           38.9          51.54          35.16         -4.102          16.43          37.57         -7.445          84.04          131.3          29.17
     1.093              -28.37          38.86          51.58          35.19         -4.105          16.42          37.68         -7.395          83.77          131.1          29.38
     1.129              -28.44          38.81          51.63          35.23         -4.109          16.41          37.81         -7.338          83.47          130.9          29.61
     1.166              -28.52          38.76          51.68          35.27         -4.114          16.39          37.96         -7.272          83.12          130.7          29.88
     1.202              -28.61           38.7          51.74          35.32         -4.119          16.38          38.13         -7.196          82.71          130.4           30.2
     1.239              -28.72          38.63          51.81          35.38         -4.125          16.36          38.33         -7.106          82.23          130.1          30.57
     1.275              -28.84          38.54           51.9          35.45         -4.133          16.33          38.57           -7.0          81.67          129.7          31.01
     1.312              -28.99          38.44           52.0          35.53         -4.141          16.31          38.86         -6.875           81.0          129.3          31.52
     1.348              -29.17          38.32          52.12          35.63         -4.152          16.27           39.2         -6.725           80.2          128.7          32.14
     1.385              -29.39          38.18          52.26          35.75         -4.164          16.23          39.61         -6.543          79.24          128.1           32.9
     1.421              -29.65           38.0          52.44          35.89         -4.179          16.18          40.11          -6.32          78.05          127.3          33.81
     1.457              -29.98          37.78          52.66          36.07         -4.198          16.12          40.73         -6.046          76.59          126.3          34.95
     1.494              -30.38          37.51          52.93          36.29         -4.222          16.05          41.51         -5.704          74.77          125.1          36.36
      1.53              -30.89          37.16          53.27          36.58         -4.252          15.95          42.48         -5.273          72.48          123.6          38.14
     1.567              -31.55          36.73          53.71          36.93         -4.289          15.83          43.72         -4.725          69.56          121.6           40.4
     1.603              -32.38          36.17          54.26          37.39         -4.338          15.68          45.31         -4.023          65.83          119.2          43.29
      1.64              -33.45          35.45          54.98          37.98           -4.4          15.48          47.34         -3.123          61.04          116.0          47.01
     1.676              -34.81          34.53          55.89          38.73         -4.479          15.23          49.95         -1.974          54.92          111.9          51.75
     1.712              -36.53          33.38          57.04          39.67         -4.578          14.91          53.22        -0.5284          47.23          106.8          57.72
     1.749              -38.62          31.97          58.44          40.82           -4.7          14.52           57.2          1.233          37.86          100.5          64.99
